<mxfile host="65bd71144e">
    <diagram id="X3y0ZtMushf5yGIk-xHo" name="Página-1">
        <mxGraphModel dx="2117" dy="772" grid="1" gridSize="10" guides="1" tooltips="1" connect="1" arrows="1" fold="1" page="1" pageScale="1" pageWidth="1169" pageHeight="827" math="0" shadow="0">
            <root>
                <mxCell id="0"/>
                <mxCell id="1" parent="0"/>
                <mxCell id="195" style="edgeStyle=none;html=1;exitX=0.5;exitY=0;exitDx=0;exitDy=0;endArrow=none;endFill=0;entryX=0.5;entryY=1;entryDx=0;entryDy=0;" edge="1" parent="1" source="5" target="191">
                    <mxGeometry relative="1" as="geometry">
                        <mxPoint x="-860" y="165" as="targetPoint"/>
                    </mxGeometry>
                </mxCell>
                <mxCell id="277" style="edgeStyle=none;html=1;entryX=0.5;entryY=0;entryDx=0;entryDy=0;endArrow=none;endFill=1;" edge="1" parent="1" source="5" target="275">
                    <mxGeometry relative="1" as="geometry">
                        <Array as="points">
                            <mxPoint x="-800" y="240"/>
                        </Array>
                    </mxGeometry>
                </mxCell>
                <mxCell id="5" value="CLIENTES" style="rounded=0;whiteSpace=wrap;html=1;fontSize=12;" parent="1" vertex="1">
                    <mxGeometry x="-1040" y="200" width="160" height="80" as="geometry"/>
                </mxCell>
                <mxCell id="6" value="EMPLEADOS" style="rounded=0;whiteSpace=wrap;html=1;fontSize=12;" parent="1" vertex="1">
                    <mxGeometry x="-640" y="200" width="160" height="80" as="geometry"/>
                </mxCell>
                <mxCell id="10" style="html=1;labelBorderColor=none;strokeWidth=1;endArrow=oval;endFill=1;endSize=6;targetPerimeterSpacing=0;align=left;exitX=0;exitY=0.25;exitDx=0;exitDy=0;fontSize=12;entryX=1;entryY=0.5;entryDx=0;entryDy=0;" parent="1" source="6" target="11" edge="1">
                    <mxGeometry relative="1" as="geometry">
                        <mxPoint x="-452" y="158.95" as="sourcePoint"/>
                        <mxPoint x="-660" y="220" as="targetPoint"/>
                    </mxGeometry>
                </mxCell>
                <mxCell id="11" value="Legajo" style="text;html=1;strokeColor=none;fillColor=none;align=left;verticalAlign=middle;whiteSpace=wrap;rounded=0;container=0;spacingLeft=8;fontSize=12;" parent="1" vertex="1">
                    <mxGeometry x="-720" y="210" width="60" height="20" as="geometry"/>
                </mxCell>
                <mxCell id="12" value="Áreas" style="rounded=0;whiteSpace=wrap;html=1;fontSize=12;" parent="1" vertex="1">
                    <mxGeometry x="-440" y="320" width="160" height="80" as="geometry"/>
                </mxCell>
                <mxCell id="13" style="html=1;labelBorderColor=none;strokeWidth=1;endArrow=oval;endFill=1;endSize=6;targetPerimeterSpacing=0;align=left;exitX=1;exitY=0;exitDx=0;exitDy=0;fontSize=12;" parent="1" source="12" target="14" edge="1">
                    <mxGeometry relative="1" as="geometry">
                        <mxPoint x="-232" y="340" as="sourcePoint"/>
                    </mxGeometry>
                </mxCell>
                <mxCell id="14" value="Código" style="text;html=1;strokeColor=none;fillColor=none;align=left;verticalAlign=middle;whiteSpace=wrap;rounded=0;container=0;spacingLeft=8;fontSize=12;" parent="1" vertex="1">
                    <mxGeometry x="-260" y="310" width="60" height="20" as="geometry"/>
                </mxCell>
                <mxCell id="18" value="INMUEBLES" style="rounded=0;whiteSpace=wrap;html=1;fontSize=12;" parent="1" vertex="1">
                    <mxGeometry x="-1040" y="440" width="160" height="80" as="geometry"/>
                </mxCell>
                <mxCell id="58" value="" style="edgeStyle=none;html=1;endArrow=none;endFill=0;startArrow=none;fontSize=12;entryX=1;entryY=0.5;entryDx=0;entryDy=0;exitX=0;exitY=0.5;exitDx=0;exitDy=0;" parent="1" source="226" target="57" edge="1">
                    <mxGeometry relative="1" as="geometry"/>
                </mxCell>
                <mxCell id="236" style="edgeStyle=none;html=1;exitX=0.5;exitY=0;exitDx=0;exitDy=0;entryX=0.5;entryY=1;entryDx=0;entryDy=0;endArrow=none;endFill=1;" edge="1" parent="1" source="22" target="233">
                    <mxGeometry relative="1" as="geometry"/>
                </mxCell>
                <mxCell id="22" value="VENTAS" style="rounded=0;whiteSpace=wrap;html=1;fontSize=12;" parent="1" vertex="1">
                    <mxGeometry x="-520" y="680" width="160" height="80" as="geometry"/>
                </mxCell>
                <mxCell id="234" value="" style="edgeStyle=none;html=1;endArrow=none;endFill=1;" edge="1" parent="1" source="23" target="232">
                    <mxGeometry relative="1" as="geometry"/>
                </mxCell>
                <mxCell id="23" value="ALQUILERES" style="rounded=0;whiteSpace=wrap;html=1;fontSize=12;" parent="1" vertex="1">
                    <mxGeometry x="-760" y="680" width="160" height="80" as="geometry"/>
                </mxCell>
                <mxCell id="261" value="" style="edgeStyle=none;html=1;endArrow=none;endFill=1;" edge="1" parent="1" source="27" target="12">
                    <mxGeometry relative="1" as="geometry"/>
                </mxCell>
                <mxCell id="27" value="trabajan_en" style="rhombus;whiteSpace=wrap;html=1;fontSize=12;" parent="1" vertex="1">
                    <mxGeometry x="-440" y="200" width="160" height="80" as="geometry"/>
                </mxCell>
                <mxCell id="32" value="" style="edgeStyle=none;html=1;endArrow=none;endFill=0;fontSize=12;entryX=0;entryY=0.5;entryDx=0;entryDy=0;" parent="1" source="6" target="27" edge="1">
                    <mxGeometry relative="1" as="geometry">
                        <mxPoint x="-422" y="228.95" as="sourcePoint"/>
                        <mxPoint x="-440" y="238.95" as="targetPoint"/>
                    </mxGeometry>
                </mxCell>
                <mxCell id="36" style="html=1;labelBorderColor=none;strokeWidth=1;endArrow=oval;endFill=0;endSize=6;targetPerimeterSpacing=0;align=left;exitX=0;exitY=0;exitDx=0;exitDy=0;fontSize=12;" parent="1" source="27" target="37" edge="1">
                    <mxGeometry relative="1" as="geometry">
                        <mxPoint x="-292" y="150" as="sourcePoint"/>
                    </mxGeometry>
                </mxCell>
                <mxCell id="37" value="fecha desde" style="text;html=1;strokeColor=none;fillColor=none;align=left;verticalAlign=middle;whiteSpace=wrap;rounded=0;container=0;spacingLeft=8;fontSize=12;" parent="1" vertex="1">
                    <mxGeometry x="-440" y="180" width="80" height="20" as="geometry"/>
                </mxCell>
                <mxCell id="38" style="html=1;labelBorderColor=none;strokeWidth=1;endArrow=oval;endFill=0;endSize=6;targetPerimeterSpacing=0;align=left;exitX=1;exitY=0;exitDx=0;exitDy=0;fontSize=12;" parent="1" source="27" target="39" edge="1">
                    <mxGeometry relative="1" as="geometry">
                        <mxPoint x="-242" y="140" as="sourcePoint"/>
                    </mxGeometry>
                </mxCell>
                <mxCell id="42" value="" style="group;fontSize=12;" parent="1" vertex="1" connectable="0">
                    <mxGeometry x="-360" y="180" width="110" height="20" as="geometry"/>
                </mxCell>
                <mxCell id="39" value="fecha hasta" style="text;html=1;strokeColor=none;fillColor=none;align=left;verticalAlign=middle;whiteSpace=wrap;rounded=0;container=0;spacingLeft=8;fontSize=12;" parent="42" vertex="1">
                    <mxGeometry width="80" height="20" as="geometry"/>
                </mxCell>
                <mxCell id="40" value="0..1" style="text;html=1;strokeColor=none;fillColor=none;align=center;verticalAlign=middle;whiteSpace=wrap;rounded=0;labelBackgroundColor=none;fontFamily=Helvetica;fontSize=12;container=0;" parent="42" vertex="1">
                    <mxGeometry x="70" width="40" height="20" as="geometry"/>
                </mxCell>
                <mxCell id="43" value="poseen" style="rhombus;whiteSpace=wrap;html=1;fontSize=12;" parent="1" vertex="1">
                    <mxGeometry x="-1040" y="320" width="160" height="80" as="geometry"/>
                </mxCell>
                <mxCell id="46" value="" style="edgeStyle=none;html=1;endArrow=none;endFill=0;fontSize=12;entryX=0.5;entryY=0;entryDx=0;entryDy=0;" parent="1" source="5" target="43" edge="1">
                    <mxGeometry relative="1" as="geometry">
                        <mxPoint x="-982" y="255" as="sourcePoint"/>
                        <mxPoint x="-960" y="290" as="targetPoint"/>
                    </mxGeometry>
                </mxCell>
                <mxCell id="48" value="" style="edgeStyle=none;html=1;endArrow=none;endFill=0;fontSize=12;entryX=0.5;entryY=0;entryDx=0;entryDy=0;" parent="1" source="43" target="18" edge="1">
                    <mxGeometry relative="1" as="geometry">
                        <mxPoint x="-902" y="410" as="sourcePoint"/>
                        <mxPoint x="-960" y="410" as="targetPoint"/>
                    </mxGeometry>
                </mxCell>
                <mxCell id="50" value="realizan" style="rhombus;whiteSpace=wrap;html=1;fontSize=12;" parent="1" vertex="1">
                    <mxGeometry x="-640" y="320" width="160" height="80" as="geometry"/>
                </mxCell>
                <mxCell id="238" style="edgeStyle=none;html=1;exitX=0;exitY=0.5;exitDx=0;exitDy=0;entryX=1;entryY=0.5;entryDx=0;entryDy=0;endArrow=none;endFill=1;" edge="1" parent="1" source="57" target="18">
                    <mxGeometry relative="1" as="geometry">
                        <mxPoint x="-820.0000000000001" y="520" as="targetPoint"/>
                    </mxGeometry>
                </mxCell>
                <mxCell id="57" value="corresponden" style="rhombus;whiteSpace=wrap;html=1;fontSize=12;" parent="1" vertex="1">
                    <mxGeometry x="-840" y="440" width="160" height="80" as="geometry"/>
                </mxCell>
                <mxCell id="60" value="tienen" style="rhombus;whiteSpace=wrap;html=1;fontSize=12;" parent="1" vertex="1">
                    <mxGeometry x="-1040" y="560" width="160" height="80" as="geometry"/>
                </mxCell>
                <mxCell id="62" value="" style="edgeStyle=none;html=1;endArrow=none;endFill=0;startArrow=none;fontSize=12;exitX=0.5;exitY=0;exitDx=0;exitDy=0;" parent="1" source="61" target="60" edge="1">
                    <mxGeometry relative="1" as="geometry">
                        <mxPoint x="-960" y="650" as="sourcePoint"/>
                    </mxGeometry>
                </mxCell>
                <mxCell id="61" value="TIPOS DE INMUEBLE" style="rounded=0;whiteSpace=wrap;html=1;fontSize=12;" parent="1" vertex="1">
                    <mxGeometry x="-1040" y="680" width="160" height="80" as="geometry"/>
                </mxCell>
                <mxCell id="64" value="" style="edgeStyle=none;html=1;endArrow=none;endFill=0;fontSize=12;entryX=0.5;entryY=0;entryDx=0;entryDy=0;" parent="1" source="18" target="60" edge="1">
                    <mxGeometry relative="1" as="geometry">
                        <mxPoint x="-962" y="520" as="sourcePoint"/>
                        <mxPoint x="-960" y="540" as="targetPoint"/>
                    </mxGeometry>
                </mxCell>
                <mxCell id="71" value="" style="edgeStyle=none;html=1;endArrow=none;endFill=0;entryX=0.5;entryY=0;entryDx=0;entryDy=0;fontSize=12;" parent="1" source="50" target="226" edge="1">
                    <mxGeometry relative="1" as="geometry">
                        <mxPoint x="-502" y="408.95" as="sourcePoint"/>
                        <mxPoint x="-520" y="428.95" as="targetPoint"/>
                    </mxGeometry>
                </mxCell>
                <mxCell id="74" value="" style="edgeStyle=none;html=1;endArrow=none;endFill=0;fontSize=12;entryX=0.5;entryY=1;entryDx=0;entryDy=0;" parent="1" source="50" target="6" edge="1">
                    <mxGeometry relative="1" as="geometry">
                        <mxPoint x="-502" y="328.95" as="sourcePoint"/>
                        <mxPoint x="-526.6666666666667" y="308.95" as="targetPoint"/>
                    </mxGeometry>
                </mxCell>
                <mxCell id="86" value="(1, 1)" style="text;html=1;strokeColor=none;fillColor=none;align=center;verticalAlign=middle;whiteSpace=wrap;rounded=0;labelBackgroundColor=none;fontSize=12;" parent="1" vertex="1">
                    <mxGeometry x="-680" y="460" width="40" height="20" as="geometry"/>
                </mxCell>
                <mxCell id="90" value="" style="edgeStyle=none;html=1;endArrow=none;endFill=0;fontSize=12;exitX=0;exitY=0.5;exitDx=0;exitDy=0;" parent="1" edge="1">
                    <mxGeometry relative="1" as="geometry">
                        <mxPoint x="-698" y="528.95" as="sourcePoint"/>
                        <mxPoint x="-698.0000000000001" y="528.95" as="targetPoint"/>
                    </mxGeometry>
                </mxCell>
                <mxCell id="109" style="html=1;labelBorderColor=none;strokeWidth=1;endArrow=oval;endFill=0;endSize=6;targetPerimeterSpacing=0;align=left;exitX=1;exitY=0.25;exitDx=0;exitDy=0;fontSize=12;" parent="1" source="12" target="110" edge="1">
                    <mxGeometry relative="1" as="geometry">
                        <mxPoint x="-42" y="340" as="sourcePoint"/>
                    </mxGeometry>
                </mxCell>
                <mxCell id="110" value="Descripción" style="text;html=1;strokeColor=none;fillColor=none;align=left;verticalAlign=middle;whiteSpace=wrap;rounded=0;container=0;spacingLeft=8;fontSize=12;" parent="1" vertex="1">
                    <mxGeometry x="-260" y="330" width="80" height="20" as="geometry"/>
                </mxCell>
                <mxCell id="111" style="html=1;labelBorderColor=none;strokeWidth=1;endArrow=oval;endFill=0;endSize=6;targetPerimeterSpacing=0;align=left;exitX=1;exitY=0.5;exitDx=0;exitDy=0;fontSize=12;" parent="1" source="12" target="112" edge="1">
                    <mxGeometry relative="1" as="geometry">
                        <mxPoint x="-222" y="360" as="sourcePoint"/>
                    </mxGeometry>
                </mxCell>
                <mxCell id="112" value="Teléfonos" style="text;html=1;strokeColor=none;fillColor=none;align=left;verticalAlign=middle;whiteSpace=wrap;rounded=0;container=0;spacingLeft=8;fontSize=12;" parent="1" vertex="1">
                    <mxGeometry x="-260" y="350" width="80" height="20" as="geometry"/>
                </mxCell>
                <mxCell id="113" style="html=1;labelBorderColor=none;strokeWidth=1;endArrow=oval;endFill=0;endSize=6;targetPerimeterSpacing=0;align=left;exitX=1;exitY=0.75;exitDx=0;exitDy=0;fontSize=12;" parent="1" source="12" target="114" edge="1">
                    <mxGeometry relative="1" as="geometry">
                        <mxPoint x="-182" y="420" as="sourcePoint"/>
                    </mxGeometry>
                </mxCell>
                <mxCell id="114" value="Ubicación" style="text;html=1;strokeColor=none;fillColor=none;align=left;verticalAlign=middle;whiteSpace=wrap;rounded=0;container=0;spacingLeft=8;fontSize=12;" parent="1" vertex="1">
                    <mxGeometry x="-260" y="370" width="80" height="20" as="geometry"/>
                </mxCell>
                <mxCell id="116" style="html=1;labelBorderColor=none;strokeWidth=1;endArrow=oval;endFill=0;endSize=6;targetPerimeterSpacing=0;align=left;exitX=0;exitY=0.5;exitDx=0;exitDy=0;fontSize=12;" parent="1" source="5" target="117" edge="1">
                    <mxGeometry relative="1" as="geometry">
                        <mxPoint x="-1362" y="225" as="sourcePoint"/>
                    </mxGeometry>
                </mxCell>
                <mxCell id="117" value="Sexo" style="text;html=1;strokeColor=none;fillColor=none;align=left;verticalAlign=middle;whiteSpace=wrap;rounded=0;container=0;spacingLeft=8;fontSize=12;" parent="1" vertex="1">
                    <mxGeometry x="-1110" y="230" width="50" height="20" as="geometry"/>
                </mxCell>
                <mxCell id="118" style="html=1;labelBorderColor=none;strokeWidth=1;endArrow=oval;endFill=0;endSize=6;targetPerimeterSpacing=0;align=left;exitX=0;exitY=0.25;exitDx=0;exitDy=0;fontSize=12;" parent="1" source="5" target="119" edge="1">
                    <mxGeometry relative="1" as="geometry">
                        <mxPoint x="-1362" y="265" as="sourcePoint"/>
                    </mxGeometry>
                </mxCell>
                <mxCell id="119" value="Nacionalidad" style="text;html=1;strokeColor=none;fillColor=none;align=left;verticalAlign=middle;whiteSpace=wrap;rounded=0;container=0;spacingLeft=2;fontSize=12;" parent="1" vertex="1">
                    <mxGeometry x="-1140" y="210" width="80" height="20" as="geometry"/>
                </mxCell>
                <mxCell id="120" style="html=1;labelBorderColor=none;strokeWidth=1;endArrow=oval;endFill=1;endSize=6;targetPerimeterSpacing=0;align=left;exitX=0;exitY=0;exitDx=0;exitDy=0;fontSize=12;" parent="1" source="5" target="121" edge="1">
                    <mxGeometry relative="1" as="geometry">
                        <mxPoint x="-1352" y="315" as="sourcePoint"/>
                    </mxGeometry>
                </mxCell>
                <mxCell id="121" value="Pasaporte" style="text;html=1;strokeColor=none;fillColor=none;align=left;verticalAlign=middle;whiteSpace=wrap;rounded=0;container=0;spacingLeft=8;fontSize=12;" parent="1" vertex="1">
                    <mxGeometry x="-1130" y="190" width="70" height="20" as="geometry"/>
                </mxCell>
                <mxCell id="130" style="html=1;labelBorderColor=none;strokeWidth=1;endArrow=oval;endFill=1;endSize=6;targetPerimeterSpacing=0;align=left;exitX=0;exitY=0.5;exitDx=0;exitDy=0;fontSize=12;" parent="1" source="18" target="131" edge="1">
                    <mxGeometry relative="1" as="geometry">
                        <mxPoint x="-1235" y="499" as="sourcePoint"/>
                    </mxGeometry>
                </mxCell>
                <mxCell id="131" value="Código" style="text;html=1;strokeColor=none;fillColor=none;align=left;verticalAlign=middle;whiteSpace=wrap;rounded=0;container=0;spacingLeft=8;fontSize=12;" parent="1" vertex="1">
                    <mxGeometry x="-1120" y="470" width="60" height="20" as="geometry"/>
                </mxCell>
                <mxCell id="132" style="html=1;labelBorderColor=none;strokeWidth=1;endArrow=oval;endFill=0;endSize=6;targetPerimeterSpacing=0;align=left;exitX=0.25;exitY=1;exitDx=0;exitDy=0;fontSize=12;" parent="1" source="18" target="133" edge="1">
                    <mxGeometry relative="1" as="geometry">
                        <mxPoint x="-1202" y="500" as="sourcePoint"/>
                        <Array as="points">
                            <mxPoint x="-1040" y="540"/>
                        </Array>
                    </mxGeometry>
                </mxCell>
                <mxCell id="133" value="Balcón" style="text;html=1;strokeColor=none;fillColor=none;align=left;verticalAlign=middle;whiteSpace=wrap;rounded=0;container=0;spacingLeft=8;fontSize=12;" parent="1" vertex="1">
                    <mxGeometry x="-1120" y="530" width="60" height="20" as="geometry"/>
                </mxCell>
                <mxCell id="134" style="html=1;labelBorderColor=none;strokeWidth=1;endArrow=oval;endFill=0;endSize=6;targetPerimeterSpacing=0;align=left;exitX=0;exitY=0.75;exitDx=0;exitDy=0;fontSize=12;" parent="1" source="18" target="135" edge="1">
                    <mxGeometry relative="1" as="geometry">
                        <mxPoint x="-1182" y="500" as="sourcePoint"/>
                    </mxGeometry>
                </mxCell>
                <mxCell id="135" value="Ambientes" style="text;html=1;strokeColor=none;fillColor=none;align=left;verticalAlign=middle;whiteSpace=wrap;rounded=0;container=0;spacingLeft=8;fontSize=12;" parent="1" vertex="1">
                    <mxGeometry x="-1140" y="490" width="80" height="20" as="geometry"/>
                </mxCell>
                <mxCell id="136" style="html=1;labelBorderColor=none;strokeWidth=1;endArrow=oval;endFill=0;endSize=6;targetPerimeterSpacing=0;align=left;exitX=0.25;exitY=1;exitDx=0;exitDy=0;entryX=1;entryY=0.5;entryDx=0;entryDy=0;fontSize=12;" parent="1" source="18" target="137" edge="1">
                    <mxGeometry relative="1" as="geometry">
                        <mxPoint x="-1202" y="550" as="sourcePoint"/>
                        <Array as="points">
                            <mxPoint x="-1040" y="560"/>
                        </Array>
                    </mxGeometry>
                </mxCell>
                <mxCell id="137" value="Lavadero" style="text;html=1;strokeColor=none;fillColor=none;align=left;verticalAlign=middle;whiteSpace=wrap;rounded=0;container=0;spacingLeft=8;fontSize=12;" parent="1" vertex="1">
                    <mxGeometry x="-1130" y="550" width="70" height="20" as="geometry"/>
                </mxCell>
                <mxCell id="140" style="html=1;labelBorderColor=none;strokeWidth=1;endArrow=oval;endFill=0;endSize=6;targetPerimeterSpacing=0;align=left;rounded=1;labelBackgroundColor=default;strokeColor=default;fontFamily=Helvetica;fontSize=12;fontColor=default;shape=connector;exitX=0;exitY=1;exitDx=0;exitDy=0;" parent="1" source="18" target="141" edge="1">
                    <mxGeometry relative="1" as="geometry">
                        <mxPoint x="-1249" y="520" as="sourcePoint"/>
                    </mxGeometry>
                </mxCell>
                <mxCell id="141" value="Baños" style="text;html=1;strokeColor=none;fillColor=none;align=left;verticalAlign=middle;whiteSpace=wrap;rounded=0;container=0;spacingLeft=8;fontFamily=Helvetica;fontSize=12;fontColor=default;" parent="1" vertex="1">
                    <mxGeometry x="-1120" y="510" width="60" height="20" as="geometry"/>
                </mxCell>
                <mxCell id="155" style="html=1;labelBorderColor=none;strokeWidth=1;endArrow=oval;endFill=0;endSize=6;targetPerimeterSpacing=0;align=left;rounded=1;labelBackgroundColor=default;strokeColor=default;fontFamily=Helvetica;fontSize=12;fontColor=default;shape=connector;exitX=1;exitY=1;exitDx=0;exitDy=0;entryX=1;entryY=0.5;entryDx=0;entryDy=0;" parent="1" source="23" target="179" edge="1">
                    <mxGeometry relative="1" as="geometry">
                        <mxPoint x="-760" y="760" as="sourcePoint"/>
                        <mxPoint x="-620" y="790" as="targetPoint"/>
                        <Array as="points">
                            <mxPoint x="-600" y="790"/>
                        </Array>
                    </mxGeometry>
                </mxCell>
                <mxCell id="161" style="html=1;labelBorderColor=none;strokeWidth=1;endArrow=oval;endFill=0;endSize=6;targetPerimeterSpacing=0;align=left;rounded=1;labelBackgroundColor=default;strokeColor=default;fontFamily=Helvetica;fontSize=12;fontColor=default;shape=connector;exitX=1;exitY=0;exitDx=0;exitDy=0;" parent="1" source="22" target="162" edge="1">
                    <mxGeometry relative="1" as="geometry">
                        <mxPoint x="-355" y="690" as="sourcePoint"/>
                    </mxGeometry>
                </mxCell>
                <mxCell id="162" value="Fecha y hora" style="text;html=1;strokeColor=none;fillColor=none;align=left;verticalAlign=middle;whiteSpace=wrap;rounded=0;container=0;spacingLeft=8;fontFamily=Helvetica;fontSize=12;fontColor=default;" parent="1" vertex="1">
                    <mxGeometry x="-340" y="670" width="90" height="20" as="geometry"/>
                </mxCell>
                <mxCell id="164" style="html=1;labelBorderColor=none;strokeWidth=1;endArrow=oval;endFill=0;endSize=6;targetPerimeterSpacing=0;align=left;rounded=1;labelBackgroundColor=default;strokeColor=default;fontFamily=Helvetica;fontSize=12;fontColor=default;shape=connector;exitX=1;exitY=0.25;exitDx=0;exitDy=0;" parent="1" source="22" target="165" edge="1">
                    <mxGeometry relative="1" as="geometry">
                        <mxPoint x="-325" y="730" as="sourcePoint"/>
                    </mxGeometry>
                </mxCell>
                <mxCell id="165" value="Comisión" style="text;html=1;strokeColor=none;fillColor=none;align=left;verticalAlign=middle;whiteSpace=wrap;rounded=0;container=0;spacingLeft=8;fontFamily=Helvetica;fontSize=12;fontColor=default;" parent="1" vertex="1">
                    <mxGeometry x="-340" y="690" width="80" height="20" as="geometry"/>
                </mxCell>
                <mxCell id="175" value="" style="group;fontSize=12;" parent="1" vertex="1" connectable="0">
                    <mxGeometry x="-720" y="800" width="90" height="20" as="geometry"/>
                </mxCell>
                <mxCell id="158" value="Fecha fin" style="text;html=1;strokeColor=none;fillColor=none;align=left;verticalAlign=middle;whiteSpace=wrap;rounded=0;container=0;spacingLeft=8;fontFamily=Helvetica;fontSize=12;fontColor=default;" parent="175" vertex="1">
                    <mxGeometry width="70" height="20" as="geometry"/>
                </mxCell>
                <mxCell id="166" value="0..1" style="text;html=1;strokeColor=none;fillColor=none;align=center;verticalAlign=middle;whiteSpace=wrap;rounded=0;labelBackgroundColor=none;fontFamily=Helvetica;fontSize=12;container=0;fontColor=default;" parent="175" vertex="1">
                    <mxGeometry x="60" width="30" height="20" as="geometry"/>
                </mxCell>
                <mxCell id="180" value="" style="group;fontSize=12;" parent="1" vertex="1" connectable="0">
                    <mxGeometry x="-740" y="780" width="110" height="20" as="geometry"/>
                </mxCell>
                <mxCell id="156" value="Fecha inicio&amp;nbsp;" style="text;html=1;strokeColor=none;fillColor=none;align=left;verticalAlign=middle;whiteSpace=wrap;rounded=0;container=0;spacingLeft=8;fontFamily=Helvetica;fontSize=12;fontColor=default;" parent="180" vertex="1">
                    <mxGeometry width="80" height="20" as="geometry"/>
                </mxCell>
                <mxCell id="179" value="0..1" style="text;html=1;strokeColor=none;fillColor=none;align=center;verticalAlign=middle;whiteSpace=wrap;rounded=0;labelBackgroundColor=none;fontFamily=Helvetica;fontSize=12;container=0;fontColor=default;" parent="180" vertex="1">
                    <mxGeometry x="80" width="30" height="20" as="geometry"/>
                </mxCell>
                <mxCell id="184" value="0..1" style="text;html=1;strokeColor=none;fillColor=none;align=center;verticalAlign=middle;whiteSpace=wrap;rounded=0;labelBackgroundColor=none;fontFamily=Helvetica;fontSize=12;container=0;fontColor=default;" parent="1" vertex="1">
                    <mxGeometry x="-260" y="670" width="40" height="20" as="geometry"/>
                </mxCell>
                <mxCell id="253" style="edgeStyle=none;html=1;exitX=1;exitY=0.5;exitDx=0;exitDy=0;entryX=0.25;entryY=1;entryDx=0;entryDy=0;endArrow=none;endFill=1;" edge="1" parent="1" source="191" target="7">
                    <mxGeometry relative="1" as="geometry">
                        <Array as="points">
                            <mxPoint x="-800" y="120"/>
                        </Array>
                    </mxGeometry>
                </mxCell>
                <mxCell id="191" value="es_un 0" style="rhombus;whiteSpace=wrap;html=1;" vertex="1" parent="1">
                    <mxGeometry x="-1040" y="80" width="160" height="80" as="geometry"/>
                </mxCell>
                <mxCell id="199" style="edgeStyle=none;html=1;exitX=0.5;exitY=1;exitDx=0;exitDy=0;entryX=0.5;entryY=0;entryDx=0;entryDy=0;endArrow=none;endFill=0;" edge="1" parent="1" source="197" target="6">
                    <mxGeometry relative="1" as="geometry"/>
                </mxCell>
                <mxCell id="255" style="edgeStyle=none;html=1;exitX=0;exitY=0.5;exitDx=0;exitDy=0;entryX=0.75;entryY=1;entryDx=0;entryDy=0;endArrow=none;endFill=1;" edge="1" parent="1" source="197" target="7">
                    <mxGeometry relative="1" as="geometry">
                        <mxPoint x="-760" y="78.95" as="targetPoint"/>
                        <Array as="points">
                            <mxPoint x="-720" y="120"/>
                        </Array>
                    </mxGeometry>
                </mxCell>
                <mxCell id="197" value="es_un 1" style="rhombus;whiteSpace=wrap;html=1;" vertex="1" parent="1">
                    <mxGeometry x="-640" y="80" width="160" height="80" as="geometry"/>
                </mxCell>
                <mxCell id="203" style="html=1;labelBorderColor=none;strokeWidth=1;endArrow=oval;endFill=1;endSize=6;targetPerimeterSpacing=0;align=left;exitX=0;exitY=0;exitDx=0;exitDy=0;entryX=1;entryY=0.5;entryDx=0;entryDy=0;" edge="1" target="204" parent="1" source="18">
                    <mxGeometry relative="1" as="geometry">
                        <mxPoint x="-1250" y="400" as="sourcePoint"/>
                        <mxPoint x="-1030" y="410" as="targetPoint"/>
                        <Array as="points">
                            <mxPoint x="-1040" y="420"/>
                        </Array>
                    </mxGeometry>
                </mxCell>
                <mxCell id="204" value="Calle" style="text;html=1;strokeColor=none;fillColor=none;align=left;verticalAlign=middle;whiteSpace=wrap;rounded=0;container=0;spacingLeft=8;" vertex="1" parent="1">
                    <mxGeometry x="-1110" y="410" width="50" height="20" as="geometry"/>
                </mxCell>
                <mxCell id="205" style="html=1;labelBorderColor=none;strokeWidth=1;endArrow=oval;endFill=1;endSize=6;targetPerimeterSpacing=0;align=left;exitX=0;exitY=0;exitDx=0;exitDy=0;" edge="1" target="206" parent="1" source="18">
                    <mxGeometry relative="1" as="geometry">
                        <mxPoint x="-1240" y="430" as="sourcePoint"/>
                    </mxGeometry>
                </mxCell>
                <mxCell id="206" value="Número" style="text;html=1;strokeColor=none;fillColor=none;align=left;verticalAlign=middle;whiteSpace=wrap;rounded=0;container=0;spacingLeft=8;" vertex="1" parent="1">
                    <mxGeometry x="-1120" y="430" width="60" height="20" as="geometry"/>
                </mxCell>
                <mxCell id="207" style="html=1;labelBorderColor=none;strokeWidth=1;endArrow=oval;endFill=1;endSize=6;targetPerimeterSpacing=0;align=left;exitX=0;exitY=0.25;exitDx=0;exitDy=0;entryX=1;entryY=0.5;entryDx=0;entryDy=0;" edge="1" target="208" parent="1" source="18">
                    <mxGeometry relative="1" as="geometry">
                        <mxPoint x="-1240" y="460" as="sourcePoint"/>
                        <Array as="points"/>
                    </mxGeometry>
                </mxCell>
                <mxCell id="208" value="Ciudad" style="text;html=1;strokeColor=none;fillColor=none;align=left;verticalAlign=middle;whiteSpace=wrap;rounded=0;container=0;spacingLeft=8;" vertex="1" parent="1">
                    <mxGeometry x="-1120" y="450" width="60" height="20" as="geometry"/>
                </mxCell>
                <mxCell id="209" style="html=1;labelBorderColor=none;strokeWidth=1;endArrow=oval;endFill=1;endSize=6;targetPerimeterSpacing=0;align=left;fontSize=12;" edge="1" parent="1">
                    <mxGeometry relative="1" as="geometry">
                        <mxPoint x="-1050" y="420" as="sourcePoint"/>
                        <mxPoint x="-1050" y="410" as="targetPoint"/>
                    </mxGeometry>
                </mxCell>
                <mxCell id="210" style="html=1;labelBorderColor=none;strokeWidth=1;endArrow=oval;endFill=1;endSize=6;targetPerimeterSpacing=0;align=left;fontSize=12;" edge="1" parent="1">
                    <mxGeometry relative="1" as="geometry">
                        <mxPoint x="-1050" y="440" as="sourcePoint"/>
                        <mxPoint x="-1050" y="420" as="targetPoint"/>
                    </mxGeometry>
                </mxCell>
                <mxCell id="211" style="html=1;labelBorderColor=none;strokeWidth=1;endArrow=oval;endFill=1;endSize=6;targetPerimeterSpacing=0;align=left;fontSize=12;" edge="1" parent="1">
                    <mxGeometry relative="1" as="geometry">
                        <mxPoint x="-1050" y="460" as="sourcePoint"/>
                        <mxPoint x="-1050" y="440" as="targetPoint"/>
                    </mxGeometry>
                </mxCell>
                <mxCell id="215" style="html=1;labelBorderColor=none;strokeWidth=1;endArrow=oval;endFill=1;endSize=6;targetPerimeterSpacing=0;align=left;fontSize=12;" edge="1" parent="1">
                    <mxGeometry relative="1" as="geometry">
                        <mxPoint x="-1050" y="439.5348837209302" as="sourcePoint"/>
                        <mxPoint x="-1050" y="460" as="targetPoint"/>
                    </mxGeometry>
                </mxCell>
                <mxCell id="216" style="html=1;labelBorderColor=none;strokeWidth=1;endArrow=oval;endFill=1;endSize=6;targetPerimeterSpacing=0;align=left;exitX=0;exitY=0.25;exitDx=0;exitDy=0;" edge="1" target="217" parent="1" source="61">
                    <mxGeometry relative="1" as="geometry">
                        <mxPoint x="-1175" y="700" as="sourcePoint"/>
                    </mxGeometry>
                </mxCell>
                <mxCell id="217" value="Nombre" style="text;html=1;strokeColor=none;fillColor=none;align=left;verticalAlign=middle;whiteSpace=wrap;rounded=0;container=0;spacingLeft=8;" vertex="1" parent="1">
                    <mxGeometry x="-1120" y="690" width="60" height="20" as="geometry"/>
                </mxCell>
                <mxCell id="226" value="OPERACIONES" style="rounded=0;whiteSpace=wrap;html=1;fontSize=12;" vertex="1" parent="1">
                    <mxGeometry x="-640" y="440" width="160" height="80" as="geometry"/>
                </mxCell>
                <mxCell id="227" style="html=1;labelBorderColor=none;strokeWidth=1;endArrow=oval;endFill=0;endSize=6;targetPerimeterSpacing=0;align=left;exitX=1;exitY=0.5;exitDx=0;exitDy=0;entryX=0;entryY=0.5;entryDx=0;entryDy=0;" edge="1" target="228" parent="1" source="226">
                    <mxGeometry relative="1" as="geometry">
                        <mxPoint x="-380" y="548.95" as="sourcePoint"/>
                        <mxPoint x="-460" y="478.95" as="targetPoint"/>
                    </mxGeometry>
                </mxCell>
                <mxCell id="228" value="Precio" style="text;html=1;strokeColor=none;fillColor=none;align=left;verticalAlign=middle;whiteSpace=wrap;rounded=0;container=0;spacingLeft=8;" vertex="1" parent="1">
                    <mxGeometry x="-460" y="470" width="80" height="20" as="geometry"/>
                </mxCell>
                <mxCell id="229" style="html=1;labelBorderColor=none;strokeWidth=1;endArrow=oval;endFill=1;endSize=6;targetPerimeterSpacing=0;align=left;exitX=1;exitY=0.25;exitDx=0;exitDy=0;entryX=0;entryY=0.5;entryDx=0;entryDy=0;" edge="1" target="230" parent="1" source="226">
                    <mxGeometry relative="1" as="geometry">
                        <mxPoint x="-470" y="498.95" as="sourcePoint"/>
                        <mxPoint x="-460" y="458.95" as="targetPoint"/>
                    </mxGeometry>
                </mxCell>
                <mxCell id="230" value="Identificador" style="text;html=1;strokeColor=none;fillColor=none;align=left;verticalAlign=middle;whiteSpace=wrap;rounded=0;container=0;spacingLeft=8;" vertex="1" parent="1">
                    <mxGeometry x="-460" y="450" width="80" height="20" as="geometry"/>
                </mxCell>
                <mxCell id="263" style="edgeStyle=none;html=1;exitX=0.5;exitY=0;exitDx=0;exitDy=0;entryX=0.25;entryY=1;entryDx=0;entryDy=0;endArrow=none;endFill=1;" edge="1" parent="1" source="232" target="226">
                    <mxGeometry relative="1" as="geometry">
                        <Array as="points">
                            <mxPoint x="-680" y="540"/>
                            <mxPoint x="-600" y="540"/>
                        </Array>
                    </mxGeometry>
                </mxCell>
                <mxCell id="232" value="es_un 2" style="rhombus;whiteSpace=wrap;html=1;" vertex="1" parent="1">
                    <mxGeometry x="-760" y="560" width="160" height="80" as="geometry"/>
                </mxCell>
                <mxCell id="264" style="edgeStyle=none;html=1;exitX=0.5;exitY=0;exitDx=0;exitDy=0;entryX=0.75;entryY=1;entryDx=0;entryDy=0;endArrow=none;endFill=1;" edge="1" parent="1" source="233" target="226">
                    <mxGeometry relative="1" as="geometry">
                        <Array as="points">
                            <mxPoint x="-440" y="540"/>
                            <mxPoint x="-520" y="540"/>
                        </Array>
                    </mxGeometry>
                </mxCell>
                <mxCell id="233" value="es_un 3" style="rhombus;whiteSpace=wrap;html=1;" vertex="1" parent="1">
                    <mxGeometry x="-520" y="560" width="160" height="80" as="geometry"/>
                </mxCell>
                <mxCell id="241" value="(1, 1)" style="text;html=1;strokeColor=none;fillColor=none;align=center;verticalAlign=middle;whiteSpace=wrap;rounded=0;labelBackgroundColor=none;fontSize=12;" vertex="1" parent="1">
                    <mxGeometry x="-960" y="410" width="40" height="20" as="geometry"/>
                </mxCell>
                <mxCell id="242" value="(0, n)" style="text;html=1;strokeColor=none;fillColor=none;align=center;verticalAlign=middle;whiteSpace=wrap;rounded=0;labelBackgroundColor=none;fontSize=12;" vertex="1" parent="1">
                    <mxGeometry x="-960" y="290" width="40" height="20" as="geometry"/>
                </mxCell>
                <mxCell id="243" value="(1, 1)" style="text;html=1;strokeColor=none;fillColor=none;align=center;verticalAlign=middle;whiteSpace=wrap;rounded=0;labelBackgroundColor=none;fontSize=12;" vertex="1" parent="1">
                    <mxGeometry x="-960" y="530" width="40" height="20" as="geometry"/>
                </mxCell>
                <mxCell id="244" value="(0, n)" style="text;html=1;strokeColor=none;fillColor=none;align=center;verticalAlign=middle;whiteSpace=wrap;rounded=0;labelBackgroundColor=none;fontSize=12;" vertex="1" parent="1">
                    <mxGeometry x="-960" y="650" width="40" height="20" as="geometry"/>
                </mxCell>
                <mxCell id="245" value="(1, n)" style="text;html=1;strokeColor=none;fillColor=none;align=center;verticalAlign=middle;whiteSpace=wrap;rounded=0;labelBackgroundColor=none;fontSize=12;" vertex="1" parent="1">
                    <mxGeometry x="-880" y="460" width="40" height="20" as="geometry"/>
                </mxCell>
                <mxCell id="247" value="(1, 1)" style="text;html=1;strokeColor=none;fillColor=none;align=center;verticalAlign=middle;whiteSpace=wrap;rounded=0;labelBackgroundColor=none;fontSize=12;" vertex="1" parent="1">
                    <mxGeometry x="-560" y="410" width="40" height="20" as="geometry"/>
                </mxCell>
                <mxCell id="248" value="(1, 1)" style="text;html=1;strokeColor=none;fillColor=none;align=center;verticalAlign=middle;whiteSpace=wrap;rounded=0;labelBackgroundColor=none;fontSize=12;" vertex="1" parent="1">
                    <mxGeometry x="-960" y="170" width="40" height="20" as="geometry"/>
                </mxCell>
                <mxCell id="249" value="(1, 1)" style="text;html=1;strokeColor=none;fillColor=none;align=center;verticalAlign=middle;whiteSpace=wrap;rounded=0;labelBackgroundColor=none;fontSize=12;" vertex="1" parent="1">
                    <mxGeometry x="-880" y="100" width="40" height="20" as="geometry"/>
                </mxCell>
                <mxCell id="250" value="(1, 1)" style="text;html=1;strokeColor=none;fillColor=none;align=center;verticalAlign=middle;whiteSpace=wrap;rounded=0;labelBackgroundColor=none;fontSize=12;" vertex="1" parent="1">
                    <mxGeometry x="-720" y="100" width="40" height="20" as="geometry"/>
                </mxCell>
                <mxCell id="251" value="(1, 1)" style="text;html=1;strokeColor=none;fillColor=none;align=center;verticalAlign=middle;whiteSpace=wrap;rounded=0;labelBackgroundColor=none;fontSize=12;" vertex="1" parent="1">
                    <mxGeometry x="-560" y="170" width="40" height="20" as="geometry"/>
                </mxCell>
                <mxCell id="252" value="(0, n)" style="text;html=1;strokeColor=none;fillColor=none;align=center;verticalAlign=middle;whiteSpace=wrap;rounded=0;labelBackgroundColor=none;fontSize=12;" vertex="1" parent="1">
                    <mxGeometry x="-560" y="290" width="40" height="20" as="geometry"/>
                </mxCell>
                <mxCell id="259" value="(1, 1)" style="text;html=1;strokeColor=none;fillColor=none;align=center;verticalAlign=middle;whiteSpace=wrap;rounded=0;labelBackgroundColor=none;fontSize=12;" vertex="1" parent="1">
                    <mxGeometry x="-480" y="220" width="40" height="20" as="geometry"/>
                </mxCell>
                <mxCell id="262" value="(1, n)" style="text;html=1;strokeColor=none;fillColor=none;align=center;verticalAlign=middle;whiteSpace=wrap;rounded=0;labelBackgroundColor=none;fontSize=12;" vertex="1" parent="1">
                    <mxGeometry x="-360" y="290" width="40" height="20" as="geometry"/>
                </mxCell>
                <mxCell id="265" value="(1, 1)" style="text;html=1;strokeColor=none;fillColor=none;align=center;verticalAlign=middle;whiteSpace=wrap;rounded=0;labelBackgroundColor=none;fontSize=12;" vertex="1" parent="1">
                    <mxGeometry x="-680" y="650" width="40" height="20" as="geometry"/>
                </mxCell>
                <mxCell id="266" value="(1, 1)" style="text;html=1;strokeColor=none;fillColor=none;align=center;verticalAlign=middle;whiteSpace=wrap;rounded=0;labelBackgroundColor=none;fontSize=12;" vertex="1" parent="1">
                    <mxGeometry x="-480" y="650" width="40" height="20" as="geometry"/>
                </mxCell>
                <mxCell id="269" style="html=1;labelBorderColor=none;strokeWidth=1;endArrow=oval;endFill=0;endSize=6;targetPerimeterSpacing=0;align=left;rounded=1;labelBackgroundColor=default;strokeColor=default;fontFamily=Helvetica;fontSize=12;fontColor=default;shape=connector;entryX=1;entryY=0.5;entryDx=0;entryDy=0;exitX=1;exitY=1;exitDx=0;exitDy=0;" edge="1" parent="1" source="23" target="166">
                    <mxGeometry relative="1" as="geometry">
                        <mxPoint x="-580" y="770" as="sourcePoint"/>
                        <mxPoint x="-629" y="810.0000000000001" as="targetPoint"/>
                        <Array as="points">
                            <mxPoint x="-600" y="810"/>
                        </Array>
                    </mxGeometry>
                </mxCell>
                <mxCell id="270" value="(1, 1)" style="text;html=1;strokeColor=none;fillColor=none;align=center;verticalAlign=middle;whiteSpace=wrap;rounded=0;labelBackgroundColor=none;fontSize=12;" vertex="1" parent="1">
                    <mxGeometry x="-660" y="540" width="40" height="20" as="geometry"/>
                </mxCell>
                <mxCell id="271" value="(1, 1)" style="text;html=1;strokeColor=none;fillColor=none;align=center;verticalAlign=middle;whiteSpace=wrap;rounded=0;labelBackgroundColor=none;fontSize=12;" vertex="1" parent="1">
                    <mxGeometry x="-500" y="540" width="40" height="20" as="geometry"/>
                </mxCell>
                <mxCell id="274" value="1..n" style="text;html=1;strokeColor=none;fillColor=none;align=center;verticalAlign=middle;whiteSpace=wrap;rounded=0;labelBackgroundColor=none;fontFamily=Helvetica;fontSize=12;container=0;" vertex="1" parent="1">
                    <mxGeometry x="-200" y="350" width="40" height="20" as="geometry"/>
                </mxCell>
                <mxCell id="276" style="edgeStyle=none;html=1;entryX=0.25;entryY=0;entryDx=0;entryDy=0;endArrow=none;endFill=1;exitX=0.5;exitY=1;exitDx=0;exitDy=0;" edge="1" parent="1" source="275" target="226">
                    <mxGeometry relative="1" as="geometry">
                        <Array as="points">
                            <mxPoint x="-720" y="400"/>
                            <mxPoint x="-640" y="400"/>
                        </Array>
                    </mxGeometry>
                </mxCell>
                <mxCell id="275" value="solicitan" style="rhombus;whiteSpace=wrap;html=1;" vertex="1" parent="1">
                    <mxGeometry x="-840" y="280" width="160" height="80" as="geometry"/>
                </mxCell>
                <mxCell id="278" value="(1, n)" style="text;html=1;strokeColor=none;fillColor=none;align=center;verticalAlign=middle;whiteSpace=wrap;rounded=0;labelBackgroundColor=none;fontSize=12;" vertex="1" parent="1">
                    <mxGeometry x="-840" y="220" width="40" height="20" as="geometry"/>
                </mxCell>
                <mxCell id="279" value="(1, 1)" style="text;html=1;strokeColor=none;fillColor=none;align=center;verticalAlign=middle;whiteSpace=wrap;rounded=0;labelBackgroundColor=none;fontSize=12;" vertex="1" parent="1">
                    <mxGeometry x="-720" y="380" width="40" height="20" as="geometry"/>
                </mxCell>
                <mxCell id="7" value="PERSONAS" style="rounded=0;whiteSpace=wrap;html=1;fontSize=12;container=0;" parent="1" vertex="1">
                    <mxGeometry x="-840" width="160" height="80" as="geometry"/>
                </mxCell>
                <mxCell id="8" style="html=1;labelBorderColor=none;strokeWidth=1;endArrow=oval;endFill=1;endSize=6;targetPerimeterSpacing=0;align=left;fontSize=12;exitX=1;exitY=0.25;exitDx=0;exitDy=0;" parent="1" source="7" target="9" edge="1">
                    <mxGeometry relative="1" as="geometry">
                        <mxPoint x="-670" y="20" as="sourcePoint"/>
                    </mxGeometry>
                </mxCell>
                <mxCell id="9" value="DNI" style="text;html=1;strokeColor=none;fillColor=none;align=left;verticalAlign=middle;whiteSpace=wrap;rounded=0;container=0;spacingLeft=8;fontSize=12;" parent="1" vertex="1">
                    <mxGeometry x="-660" y="10" width="40" height="20" as="geometry"/>
                </mxCell>
                <mxCell id="92" style="html=1;labelBorderColor=none;strokeWidth=1;endArrow=oval;endFill=0;endSize=6;targetPerimeterSpacing=0;align=left;fontSize=12;exitX=1;exitY=0.5;exitDx=0;exitDy=0;" parent="1" source="7" target="93" edge="1">
                    <mxGeometry relative="1" as="geometry">
                        <mxPoint x="-570" y="29" as="sourcePoint"/>
                    </mxGeometry>
                </mxCell>
                <mxCell id="94" style="html=1;labelBorderColor=none;strokeWidth=1;endArrow=oval;endFill=0;endSize=6;targetPerimeterSpacing=0;align=left;fontSize=12;exitX=1;exitY=0.75;exitDx=0;exitDy=0;" parent="1" source="7" target="95" edge="1">
                    <mxGeometry relative="1" as="geometry">
                        <mxPoint x="-540" y="40" as="sourcePoint"/>
                    </mxGeometry>
                </mxCell>
                <mxCell id="98" style="html=1;labelBorderColor=none;strokeWidth=1;endArrow=oval;endFill=0;endSize=6;targetPerimeterSpacing=0;align=left;exitX=0;exitY=0;exitDx=0;exitDy=0;fontSize=12;entryX=1;entryY=0.5;entryDx=0;entryDy=0;" parent="1" target="99" edge="1">
                    <mxGeometry relative="1" as="geometry">
                        <mxPoint x="-840" y="20" as="sourcePoint"/>
                    </mxGeometry>
                </mxCell>
                <mxCell id="99" value="Calle" style="text;html=1;strokeColor=none;fillColor=none;align=left;verticalAlign=middle;whiteSpace=wrap;rounded=0;container=0;spacingLeft=8;fontSize=12;" parent="1" vertex="1">
                    <mxGeometry x="-910" y="10" width="50" height="20" as="geometry"/>
                </mxCell>
                <mxCell id="102" style="html=1;labelBorderColor=none;strokeWidth=1;endArrow=oval;endFill=0;endSize=6;targetPerimeterSpacing=0;align=left;fontSize=12;exitX=0;exitY=0.5;exitDx=0;exitDy=0;entryX=1;entryY=0.5;entryDx=0;entryDy=0;" parent="1" target="103" edge="1">
                    <mxGeometry relative="1" as="geometry">
                        <mxPoint x="-840" y="60" as="sourcePoint"/>
                    </mxGeometry>
                </mxCell>
                <mxCell id="103" value="Ciudad" style="text;html=1;strokeColor=none;fillColor=none;align=left;verticalAlign=middle;whiteSpace=wrap;rounded=0;container=0;spacingLeft=8;fontSize=12;" parent="1" vertex="1">
                    <mxGeometry x="-920" y="50" width="60" height="20" as="geometry"/>
                </mxCell>
                <mxCell id="213" style="html=1;labelBorderColor=none;strokeWidth=1;endArrow=oval;endFill=0;endSize=6;targetPerimeterSpacing=0;align=left;exitX=0;exitY=0.25;exitDx=0;exitDy=0;" edge="1" target="214" parent="1">
                    <mxGeometry relative="1" as="geometry">
                        <mxPoint x="-840" y="40" as="sourcePoint"/>
                    </mxGeometry>
                </mxCell>
                <mxCell id="214" value="Número" style="text;html=1;strokeColor=none;fillColor=none;align=left;verticalAlign=middle;whiteSpace=wrap;rounded=0;container=0;spacingLeft=8;" vertex="1" parent="1">
                    <mxGeometry x="-920" y="30" width="60" height="20" as="geometry"/>
                </mxCell>
                <mxCell id="93" value="Nombre" style="text;html=1;strokeColor=none;fillColor=none;align=left;verticalAlign=middle;whiteSpace=wrap;rounded=0;container=0;spacingLeft=8;fontSize=12;" parent="1" vertex="1">
                    <mxGeometry x="-660" y="30" width="60" height="20" as="geometry"/>
                </mxCell>
                <mxCell id="95" value="Apellido" style="text;html=1;strokeColor=none;fillColor=none;align=left;verticalAlign=middle;whiteSpace=wrap;rounded=0;container=0;spacingLeft=8;fontSize=12;" parent="1" vertex="1">
                    <mxGeometry x="-660" y="50" width="60" height="20" as="geometry"/>
                </mxCell>
            </root>
        </mxGraphModel>
    </diagram>
</mxfile>